<!-- 책그림 아이콘 / 초록색 이미 적용되어 있음. 따로 색 지정할 필요xx -->
<svg xmlns="http://www.w3.org/2000/svg" width="48" height="48" viewBox="0 0 48 48">
    <g id="그룹_7" data-name="그룹 7" transform="translate(-265 -195)">
        <path id="패스_21" data-name="패스 21" d="M110.557,588.91l-.012-.025h0a1.036,1.036,0,0,0-.912-.551,1.018,1.018,0,0,0-.447.1l-18.287,8.9a3.4,3.4,0,0,1-3,0l-17.684-8.607a2.308,2.308,0,0,1-1.178-1.265,6.452,6.452,0,0,1-.332-2.209,5.235,5.235,0,0,1,.737-2.833L87,590.968a5.444,5.444,0,0,0,4.8,0l18.169-8.843a1.028,1.028,0,0,0-.9-1.848L90.9,589.121a3.4,3.4,0,0,1-3,0l-15.254-7.427a2.245,2.245,0,0,1-.868-1.083,6.444,6.444,0,0,1-.332-2.208,5.237,5.237,0,0,1,.737-2.833l7.717,3.758,9.052,4.37a1.02,1.02,0,0,0,.894,0l9.058-4.371,8.323-4.052a.613.613,0,0,0,.062-.035l.053-.026a1.027,1.027,0,0,0,0-1.849l-16-7.753a4.427,4.427,0,0,0-3.883,0l-16,7.753a.981.981,0,0,0-.256.179A6.469,6.469,0,0,0,69.39,578.4a9.956,9.956,0,0,0,.1,1.436l-.775.377a1,1,0,0,0-.254.178,6.46,6.46,0,0,0-1.813,4.858,8.47,8.47,0,0,0,.459,2.921,4.353,4.353,0,0,0,2.207,2.4l1.031.5a7.286,7.286,0,0,0-.957,3.767,6.52,6.52,0,0,0,.459,2.576,4.352,4.352,0,0,0,2.213,2.4l14.947,7.244a5.452,5.452,0,0,0,4.779,0l15.553-7.536a1.028,1.028,0,0,0,.476-1.373,1.03,1.03,0,0,0-1.372-.477l-15.553,7.536a3.408,3.408,0,0,1-2.987,0l-14.947-7.244a2.3,2.3,0,0,1-1.181-1.266,4.551,4.551,0,0,1-.332-1.865,5.134,5.134,0,0,1,.736-2.835L87.008,599.2a5.453,5.453,0,0,0,4.781,0l15.435-7.48a1.01,1.01,0,0,0,.232-.154l2.627-1.278a1.027,1.027,0,0,0,.474-1.373Z" transform="translate(200.35 -365.879)" fill="#0f9b6b"/>
        <rect id="사각형_6" data-name="사각형 6" width="48" height="48" transform="translate(265 195)" fill="none"/>
    </g>
</svg>
