<svg id="icon_action_bookmark_24px" data-name="icon/action/bookmark_24px" xmlns="http://www.w3.org/2000/svg" width="36" height="36" viewBox="0 0 36 36">
  <rect id="Boundary" width="36" height="36" fill="none"/>
  <g id="_Color" data-name=" ↳Color" transform="translate(5 3)" fill="#f5f8f7" stroke-miterlimit="10">
    <path d="M 25.5 29.27198791503906 L 13.17948913574219 24.5333309173584 L 12.99999904632568 24.46429061889648 L 12.82050895690918 24.5333309173584 L 0.4999990463256836 29.27198791503906 L 0.4999990463256836 3.333329916000366 C 0.4999990463256836 1.771029949188232 1.941919088363647 0.5 3.714288949966431 0.5 L 22.28570938110352 0.5 C 24.05807876586914 0.5 25.5 1.771029949188232 25.5 3.333329916000366 L 25.5 29.27198791503906 Z" stroke="none"/>
    <path d="M 3.714288711547852 1 C 2.973199844360352 1 2.278789520263672 1.25691032409668 1.758979797363281 1.723409652709961 C 1.269538879394531 2.162649154663086 0.9999980926513672 2.734390258789062 0.9999980926513672 3.333330154418945 L 0.9999980926513672 28.54396438598633 L 12.64101886749268 24.066650390625 L 12.99999904632568 23.9285888671875 L 13.35897922515869 24.066650390625 L 25 28.54396438598633 L 25 3.333330154418945 C 25 2.734390258789062 24.73045921325684 2.162649154663086 24.24101829528809 1.723409652709961 C 23.7212085723877 1.25691032409668 23.02679824829102 1 22.28570938110352 1 L 3.714288711547852 1 M 3.714288711547852 0 L 22.28570938110352 0 C 24.32856941223145 0 26 1.5 26 3.333330154418945 L 26 30 L 12.99999904632568 25 L -1.9073486328125e-06 30 L -1.9073486328125e-06 3.333330154418945 C -1.9073486328125e-06 1.5 1.671428680419922 0 3.714288711547852 0 Z" stroke="none" fill="#979797"/>
  </g>
</svg>
