<!-- 책단지 이름 아이콘 / 초록색 이미 적용되어 있음. 따로 색 지정할 필요xx -->
<svg id="그룹_2" data-name="그룹 2" xmlns="http://www.w3.org/2000/svg" width="112.122" height="38.795" viewBox="0 0 112.122 38.795">
    <path id="패스_18" data-name="패스 18" d="M149.566,554.6v1.445l6.4,5.778-2.752,3.027-5.778-5.228-5.709,5.228-2.82-3.1,6.329-5.709V554.6h-6.053v-3.989H145.3v-5.3h4.2v5.3h5.916V554.6Zm19.811,13.758V579.5h-4.2v-7.154h-7.291v-3.99Zm0-3.99V554.6h-5.985v9.768h-4.2V540.706h4.2v9.905h5.985v-9.905h4.2v23.663Z" transform="translate(-138.904 -540.706)" fill="#0f9b6b"/>
    <path id="패스_19" data-name="패스 19" d="M273.693,560.379v3.989H258.56V550.611h15.133V554.6H262.756v5.779Zm.55,17.884V567.12h4.2v7.154h7.291v3.99Zm7.292-13.895V540.706h4.2v9.905h7.979V554.6H285.73v9.768Z" transform="translate(-215.637 -540.706)" fill="#0f9b6b"/>
    <path id="패스_20" data-name="패스 20" d="M382.74,554.6v1.445l6.4,5.778-2.752,3.027-5.778-5.228L374.9,564.85l-2.82-3.1,6.329-5.709V554.6h-6.053v-3.989h16.234V554.6Zm13.62,9.768V540.706h4.2v23.663Z" transform="translate(-288.434 -540.706)" fill="#0f9b6b"/>
</svg>
